:SAMPLES-PER-SECOND 30
:FULLY-SPECIFIED
:DEGREES
192
root  10.8916 20.1317 0.248333 21.6905 -12.3038 3.95758
RightUpLeg  -39.9882 -10.6135 -45.4933
RightLeg  66.7768 -0.344246 -0.814294
RightFoot  -27.7262 0.95172 4.23267
RightToes  -58.2768 -0.378351 -0.393535
Spine  21.8008 2.72033 0.921175
Spine1  36.6284 8.87849 -1.51223
HEad  7.37716 7.71031 -8.36995
LeftShoulder1  0 -2.42657e-020 -4.95415e-022
LeftArm  -30.7312 -35.4327 -80.7571
LeftForeArm  8.18994 -50.6692 -12.437
LeftHand  5.83203e-006 -4.33227 -0.370705
RightShoulder  0 2.42657e-020 1.07489e-018
RightArm  -41.6015 44.0606 75.0792
RightForeArm  50.7141 27.8389 5.31154
RightHand  -4.67723 18.4525 -27.8646
LeftUpLeg  -82.9173 23.9233 18.5013
LeftLeg  79.631 -3.65563 -14.3195
LeftFoot  -0.684571 -0.0129623 -2.16949
LeftToes  -57.4386 2.01279e-006 2.21547e-008
193
root  11.8289 20.5549 0.593636 22.8824 -8.0712 3.57394
RightUpLeg  -34.7174 -7.59018 -44.647
RightLeg  62.3907 -4.00553 -6.65376
RightFoot  -25.9831 1.42748 6.55933
RightToes  -50.8383 -0.310323 -0.367818
Spine  20.6963 1.7286 0.791472
Spine1  34.8252 6.71398 -1.20846
HEad  8.00401 7.19244 -4.9347
LeftShoulder1  0 -2.42657e-020 -4.95415e-022
LeftArm  -31.9897 -33.0454 -80.4438
LeftForeArm  12.6748 -52.9766 -13.5439
LeftHand  -0.0393512 -5.68224 0.423479
RightShoulder  0 2.42657e-020 1.07489e-018
RightArm  -41.9636 36.6653 76.524
RightForeArm  54.6829 35.2699 7.1282
RightHand  -6.15965 17.093 -39.0413
LeftUpLeg  -86.8919 21.7729 15.3261
LeftLeg  80.1662 -2.90488 -11.9337
LeftFoot  -0.451349 -0.00720365 -1.82874
LeftToes  -53.8309 2.01279e-006 2.21547e-008
194
root  12.793 21.1947 0.878941 24.482 -5.48094 2.9792
RightUpLeg  -32.6244 -5.86287 -43.0285
RightLeg  59.3599 -5.08625 -7.47771
RightFoot  -26.2244 1.40289 6.39523
RightToes  -41.7367 -0.232503 -0.324721
Spine  19.4727 1.08406 0.146403
Spine1  32.901 3.79426 0.706308
HEad  7.33096 4.48129 -0.964096
LeftShoulder1  0 -2.42657e-020 -4.95415e-022
LeftArm  -31.9278 -31.2766 -80.2484
LeftForeArm  16.0558 -53.5649 -13.8487
LeftHand  -0.0685297 -5.94508 0.950829
RightShoulder  0 2.42657e-020 1.07489e-018
RightArm  -42.9021 26.9398 79.5409
RightForeArm  58.3355 47.9341 11.243
RightHand  -5.72463 15.5147 -39.9545
LeftUpLeg  -89.0644 18.7461 13.7223
LeftLeg  79.7909 -2.98927 -11.9347
LeftFoot  0.382207 0.00551187 -1.65245
LeftToes  -52.4621 2.01279e-006 2.21547e-008
195
root  13.6523 21.6692 1.13913 25.9699 -5.31856 1.96572
RightUpLeg  -35.9306 -7.54524 -40.6069
RightLeg  61.0615 -2.75695 -4.38967
RightFoot  -26.3916 0.96652 4.49813
RightToes  -45.1914 -0.261226 -0.342531
Spine  19.2388 1.66038 -0.659155
Spine1  32.5022 3.66001 2.13603
HEad  5.17221 0.879884 2.27162
LeftShoulder1  0 -2.42657e-020 -4.95415e-022
LeftArm  -30.36 -31.9329 -80.2464
LeftForeArm  15.8751 -53.294 -13.7091
LeftHand  -0.0468886 -5.90269 0.540126
RightShoulder  0 2.42657e-020 1.07489e-018
RightArm  -46.1569 21.8622 81.1225
RightForeArm  61.4357 53.8004 13.9282
RightHand  -5.68654 14.5028 -42.291
LeftUpLeg  -89.8941 16.7207 14.197
LeftLeg  80.0648 -2.44725 -10.0249
LeftFoot  -0.230009 -0.00288197 -1.43572
LeftToes  -52.5037 2.01279e-006 2.21547e-008
196
root  14.3913 21.88 1.3464 27.3848 -6.32439 0.348568
RightUpLeg  -43.8196 -11.8481 -36.2855
RightLeg  68.1645 1.16192 2.2833
RightFoot  -27.3906 0.241711 1.36946
RightToes  -51.7225 -0.318226 -0.371334
Spine  19.988 2.97691 -0.942686
Spine1  33.7271 6.67925 1.46801
HEad  2.5859 0.0314954 3.26345
LeftShoulder1  0 -2.42657e-020 -4.95415e-022
LeftArm  -29.3639 -34.2324 -81.0081
LeftForeArm  16.9794 -53.4352 -13.7827
LeftHand  -0.0769342 -6.48192 0.989679
RightShoulder  0 2.42657e-020 1.07489e-018
RightArm  -46.4136 23.1962 79.0784
RightForeArm  52.7846 49.8807 12.0752
RightHand  -5.42116 13.2104 -44.1245
LeftUpLeg  -90.9082 15.4431 15.8699
LeftLeg  81.7349 -1.48044 -6.99394
LeftFoot  -1.15685 -0.0139041 -1.37715
LeftToes  -50.5689 2.01279e-006 2.21547e-008
197
root  15.0297 21.8276 1.59116 28.0574 -7.31256 -0.574601
RightUpLeg  -52.8376 -16.0359 -30.951
RightLeg  76.9436 2.7042 8.63766
RightFoot  -27.6319 -0.349416 -1.04327
RightToes  -57.7521 -0.373448 -0.392012
Spine  21.3444 4.06794 -0.955038
Spine1  35.5706 9.96425 0.160897
HEad  1.21784 -1.28501 4.33103
LeftShoulder1  0 -2.42657e-020 -4.95415e-022
LeftArm  -28.0021 -37.1217 -82.0294
LeftForeArm  18.6374 -52.6265 -13.3759
LeftHand  -0.155964 -6.61148 2.3322
RightShoulder  0 2.42657e-020 1.07489e-018
RightArm  -49.7546 30.0835 74.4415
RightForeArm  58.6739 35.6185 7.21249
RightHand  -5.34538 15.4011 -37.7376
LeftUpLeg  -91.9542 14.5915 16.6925
LeftLeg  84.1103 -0.80572 -4.80772
LeftFoot  -2.52955 -0.0334593 -1.51542
LeftToes  -48.7522 2.01279e-006 2.21547e-008
198
root  15.5793 21.8207 1.88954 28.2484 -7.13103 -0.568346
RightUpLeg  -57.6583 -17.1269 -27.3017
RightLeg  79.8778 0.611955 2.11652
RightFoot  -26.3314 0.470429 2.38852
RightToes  -53.3673 -0.33307 -0.37755
Spine  22.1139 4.30261 -0.507865
Spine1  36.2156 10.8715 0.432452
HEad  1.94964 -3.41594 4.54351
LeftShoulder1  0 -2.42657e-020 -4.95415e-022
LeftArm  -25.8362 -38.6764 -84.2898
LeftForeArm  17.3933 -49.233 -11.819
LeftHand  -0.178886 -5.95037 3.07447
RightShoulder  0 2.42657e-020 1.07489e-018
RightArm  -60.071 38.1106 67.4382
RightForeArm  58.1456 18.2954 3.29654
RightHand  -4.70187 19.2588 -26.8437
LeftUpLeg  -92.7982 13.7362 15.763
LeftLeg  85.6015 -0.604676 -4.29965
LeftFoot  -3.73034 -0.0532212 -1.63421
LeftToes  -47.6876 2.01279e-006 2.21547e-008
199
root  16.0137 22.0873 2.34971 26.9709 -5.07527 0.100025
RightUpLeg  -51.3243 -12.4295 -30.158
RightLeg  75.6156 -0.705147 -2.41658
RightFoot  -25.6466 0.892482 4.29711
RightToes  -56.9065 -0.365576 -0.389464
Spine  22.5903 3.19295 0.13785
Spine1  36.9021 9.10394 0.822419
HEad  3.32791 -4.17476 4.28954
LeftShoulder1  0 -2.42657e-020 -4.95415e-022
LeftArm  -25.1501 -37.2691 -85.8446
LeftForeArm  14.2141 -47.9241 -11.2748
LeftHand  -0.193099 -5.9425 3.35291
RightShoulder  0 2.42657e-020 1.07489e-018
RightArm  -79.1748 41.7627 64.0454
RightForeArm  40.0235 8.67737 1.53269
RightHand  -2.19327 15.3985 -15.7547
LeftUpLeg  -92.004 11.8095 13.8652
LeftLeg  85.6248 -0.697119 -4.961
LeftFoot  -4.23932 -0.0563526 -1.52247
LeftToes  -46.2343 2.01279e-006 2.21547e-008
200
root  16.5907 22.8347 2.90406 25.5349 -3.14249 1.96284
RightUpLeg  -42.4867 -6.65924 -34.3104
RightLeg  66.9729 -1.85492 -3.8169
RightFoot  -25.8699 0.938191 4.46095
RightToes  -58.4736 -0.380193 -0.394094
Spine  22.4253 1.68362 0.0888537
Spine1  36.8288 5.39928 1.93956
HEad  4.02182 -5.50625 5.2339
LeftShoulder1  0 -2.42657e-020 -4.95415e-022
LeftArm  -24.4431 -34.4305 -87.4136
LeftForeArm  17.0414 -46.5982 -10.7571
LeftHand  -0.20713 -6.82321 3.10665
RightShoulder  0 2.42657e-020 1.07489e-018
RightArm  -83.9334 38.6393 69.1389
RightForeArm  19.6343 14.9278 2.69216
RightHand  -0.843498 18.4466 -4.82272
LeftUpLeg  -89.2613 8.86447 10.6236
LeftLeg  83.5839 -0.885783 -4.99973
LeftFoot  -4.31198 -0.0488945 -1.29872
LeftToes  -44.0455 2.01279e-006 2.21547e-008
201
root  17.2055 23.6149 4.31023 19.2689 -8.23114 0.666221
RightUpLeg  -35.2953 6.95133 -34.9454
RightLeg  60.7032 -5.3022 -8.19043
RightFoot  -22.2221 1.07756 5.86049
RightToes  -55.7883 -0.355228 -0.385918
Spine  24.6198 2.98255 -0.518942
Spine1  41.1342 6.68451 3.58834
HEad  4.37816 -5.66255 4.82985
LeftShoulder1  0 -2.42657e-020 -4.95415e-022
LeftArm  -23.8858 -33.1157 -91.3961
LeftForeArm  21.2856 -44.9256 -10.1394
LeftHand  -0.100024 -7.53348 1.1503
RightShoulder  0 2.42657e-020 1.07489e-018
RightArm  -70.1466 34.3254 70.49
RightForeArm  16.6044 24.6719 4.64078
RightHand  -0.39207 20.2853 -1.82192
LeftUpLeg  -83.5925 12.1413 10.3219
LeftLeg  90.7956 -0.253224 -5.1456
LeftFoot  -2.54473 -0.0338219 -1.5227
LeftToes  -27.6458 2.01279e-006 2.21547e-008
